<?xml version="1.0" encoding="UTF-8" standalone="no"?>
<svg
   xmlns:dc="http://purl.org/dc/elements/1.1/"
   xmlns:cc="http://creativecommons.org/ns#"
   xmlns:rdf="http://www.w3.org/1999/02/22-rdf-syntax-ns#"
   xmlns:svg="http://www.w3.org/2000/svg"
   xmlns="http://www.w3.org/2000/svg"
   xmlns:sodipodi="http://sodipodi.sourceforge.net/DTD/sodipodi-0.dtd"
   xmlns:inkscape="http://www.inkscape.org/namespaces/inkscape"
   id="svg35"
   version="1.1"
   viewBox="0 0 16 16"
   height="16mm"
   width="16mm"
   sodipodi:docname="icon3.svg"
   inkscape:version="0.92.3 (2405546, 2018-03-11)">
  <sodipodi:namedview
     pagecolor="#ffffff"
     bordercolor="#666666"
     borderopacity="1"
     objecttolerance="10"
     gridtolerance="10"
     guidetolerance="10"
     inkscape:pageopacity="0"
     inkscape:pageshadow="2"
     inkscape:window-width="1920"
     inkscape:window-height="1027"
     id="namedview24"
     showgrid="false"
     inkscape:snap-page="true"
     inkscape:snap-center="true"
     inkscape:snap-object-midpoints="true"
     inkscape:snap-bbox="true"
     inkscape:bbox-paths="true"
     inkscape:snap-bbox-edge-midpoints="true"
     inkscape:bbox-nodes="true"
     inkscape:snap-bbox-midpoints="true"
     inkscape:zoom="5.5191157"
     inkscape:cx="15.966817"
     inkscape:cy="27.453302"
     inkscape:window-x="-8"
     inkscape:window-y="22"
     inkscape:window-maximized="1"
     inkscape:current-layer="g91" />
  <defs
     id="defs29" />
  <metadata
     id="metadata32">
    <rdf:RDF>
      <cc:Work
         rdf:about="">
        <dc:format>image/svg+xml</dc:format>
        <dc:type
           rdf:resource="http://purl.org/dc/dcmitype/StillImage" />
        <dc:title></dc:title>
      </cc:Work>
    </rdf:RDF>
  </metadata>
  <g
     transform="translate(-80.33255,-69.281944)"
     id="layer1">
    <g
       id="g91"
       transform="translate(69.417296,65.620927)">
      <path
         id="path59"
         d="M 10.915254,4.0695053 V 3.6610172 h 0.408488 0.408489 0.408488 0.408488 0.408488 0.408488 0.408488 0.408488 v 0.4084881 q 0,0.408488 0,0.8169761 0,0.408488 0,0.816976 0,0.4084881 0,0.8169761 v 0.4084881 h -0.408488 q -0.408488,0 -0.816976,0 -0.408488,0 -0.816976,0 -0.408488,0 -0.816977,0 H 10.915254 V 6.5204335 6.1119455 5.7034574 5.2949694 4.8864814 4.4779933 4.0695053"
         style="fill:#ff0000;fill-opacity:1;stroke-width:0.81697607"
         inkscape:connector-curvature="0" />
      <path
         id="path61"
         d="M 15.159286,4.0695053 V 3.6610172 h 0.408488 0.408488 0.408488 0.408488 0.408488 0.408488 0.408488 0.408488 v 0.4084881 q 0,0.408488 0,0.8169761 0,0.408488 0,0.816976 0,0.4084881 0,0.8169761 v 0.4084881 h -0.408488 q -0.408488,0 -0.816976,0 -0.408488,0 -0.816976,0 -0.408488,0 -0.816976,0 H 15.159286 V 6.5204335 q 0,-0.408488 0,-0.8169761 0,-0.408488 0,-0.816976 0,-0.4084881 0,-0.8169761"
         style="fill:#0000ff;fill-opacity:1;stroke-width:0.81697607"
         inkscape:connector-curvature="0" />
      <path
         id="path63"
         d="M 19.403318,4.0695053 V 3.6610172 h 0.408488 0.408488 0.408488 0.408488 0.408488 0.408488 0.408488 0.408488 v 0.4084881 q 0,0.408488 0,0.8169761 0,0.408488 0,0.816976 0,0.4084881 0,0.8169761 v 0.4084881 h -0.408488 q -0.408488,0 -0.816976,0 -0.408488,0 -0.816976,0 -0.408488,0 -0.816976,0 H 19.403318 V 6.5204335 q 0,-0.408488 0,-0.8169761 0,-0.408488 0,-0.816976 0,-0.4084881 0,-0.8169761"
         style="fill:#808000;fill-opacity:1;stroke-width:0.81697607"
         inkscape:connector-curvature="0" />
      <path
         id="path65"
         d="M 23.647349,4.0695053 V 3.6610172 h 0.408488 0.408488 0.408488 0.408488 0.408488 0.408488 0.408489 0.408488 v 0.4084881 0.408488 0.4084881 0.408488 0.408488 0.4084881 0.408488 0.4084881 h -0.408488 q -0.408489,0 -0.816977,0 -0.408488,0 -0.816976,0 -0.408488,0 -0.816976,0 H 23.647349 V 6.5204335 q 0,-0.408488 0,-0.8169761 0,-0.408488 0,-0.816976 0,-0.4084881 0,-0.8169761"
         style="fill:#008000;fill-opacity:1;stroke-width:0.81697607"
         inkscape:connector-curvature="0" />
      <path
         id="path67"
         d="M 10.915254,8.3135369 V 7.9050488 h 0.408488 q 0.408489,0 0.816977,0 0.408488,0 0.816976,0 0.408488,0 0.816976,0 h 0.408488 v 0.4084881 q 0,0.408488 0,0.8169761 0,0.408488 0,0.8169762 0,0.4084878 0,0.8169758 v 0.408488 h -0.408488 q -0.408488,0 -0.816976,0 -0.408488,0 -0.816976,0 -0.408488,0 -0.816977,0 H 10.915254 V 10.764465 10.355977 9.9474892 9.539001 9.130513 8.7220249 8.3135369"
         style="fill:#ffff00;fill-opacity:1;stroke-width:0.81697607"
         inkscape:connector-curvature="0" />
      <path
         id="path69"
         d="M 15.159286,8.3135369 V 7.9050488 h 0.408488 q 0.408488,0 0.816976,0 0.408488,0 0.816976,0 0.408488,0 0.816976,0 h 0.408488 v 0.4084881 q 0,0.408488 0,0.8169761 0,0.408488 0,0.8169762 0,0.4084878 0,0.8169758 v 0.408488 h -0.408488 q -0.408488,0 -0.816976,0 -0.408488,0 -0.816976,0 -0.408488,0 -0.816976,0 h -0.408488 v -0.408488 q 0,-0.408488 0,-0.8169758 0,-0.4084882 0,-0.8169762 0,-0.4084881 0,-0.8169761"
         style="fill:#800080;fill-opacity:1;stroke-width:0.81697607"
         inkscape:connector-curvature="0" />
      <path
         id="path71"
         d="M 19.403318,8.3135369 V 7.9050488 h 0.408488 q 0.408488,0 0.816976,0 0.408488,0 0.816976,0 0.408488,0 0.816976,0 h 0.408488 v 0.4084881 q 0,0.408488 0,0.8169761 0,0.408488 0,0.8169762 0,0.4084878 0,0.8169758 v 0.408488 h -0.408488 q -0.408488,0 -0.816976,0 -0.408488,0 -0.816976,0 -0.408488,0 -0.816976,0 h -0.408488 v -0.408488 q 0,-0.408488 0,-0.8169758 0,-0.4084882 0,-0.8169762 0,-0.4084881 0,-0.8169761"
         style="fill:#ff8040;fill-opacity:1;stroke-width:0.81697607"
         inkscape:connector-curvature="0" />
      <path
         id="path73"
         d="M 23.647349,8.3135369 V 7.9050488 h 0.408488 q 0.408488,0 0.816976,0 0.408488,0 0.816976,0 0.408488,0 0.816977,0 h 0.408488 v 0.4084881 0.408488 0.4084881 0.408488 0.4084882 0.4084878 0.408488 0.408488 h -0.408488 q -0.408489,0 -0.816977,0 -0.408488,0 -0.816976,0 -0.408488,0 -0.816976,0 h -0.408488 v -0.408488 q 0,-0.408488 0,-0.8169758 0,-0.4084882 0,-0.8169762 0,-0.4084881 0,-0.8169761"
         style="fill:#804000;fill-opacity:1;stroke-width:0.81697607"
         inkscape:connector-curvature="0" />
      <path
         id="path75"
         d="m 10.915254,12.557569 v -0.408488 h 0.408488 q 0.408489,0 0.816977,0 0.408488,0 0.816976,0 0.408488,0 0.816976,0 h 0.408488 v 0.408488 q 0,0.408488 0,0.816976 0,0.408488 0,0.816976 0,0.408488 0,0.816976 v 0.408488 h -0.408488 q -0.408488,0 -0.816976,0 -0.408488,0 -0.816976,0 -0.408488,0 -0.816977,0 h -0.408488 v -0.408488 -0.408488 -0.408488 -0.408488 -0.408488 -0.408488 -0.408488"
         style="fill:#8080ff;fill-opacity:1;stroke-width:0.81697607"
         inkscape:connector-curvature="0" />
      <path
         id="path77"
         d="m 15.159286,12.557569 v -0.408488 h 0.408488 q 0.408488,0 0.816976,0 0.408488,0 0.816976,0 0.408488,0 0.816976,0 h 0.408488 v 0.408488 q 0,0.408488 0,0.816976 0,0.408488 0,0.816976 0,0.408488 0,0.816976 v 0.408488 h -0.408488 q -0.408488,0 -0.816976,0 -0.408488,0 -0.816976,0 -0.408488,0 -0.816976,0 h -0.408488 v -0.408488 q 0,-0.408488 0,-0.816976 0,-0.408488 0,-0.816976 0,-0.408488 0,-0.816976"
         style="fill:#80ffff;fill-opacity:1;stroke-width:0.81697607"
         inkscape:connector-curvature="0" />
      <path
         id="path79"
         d="m 19.403318,12.557569 v -0.408488 h 0.408488 q 0.408488,0 0.816976,0 0.408488,0 0.816976,0 0.408488,0 0.816976,0 h 0.408488 v 0.408488 q 0,0.408488 0,0.816976 0,0.408488 0,0.816976 0,0.408488 0,0.816976 v 0.408488 h -0.408488 q -0.408488,0 -0.816976,0 -0.408488,0 -0.816976,0 -0.408488,0 -0.816976,0 h -0.408488 v -0.408488 q 0,-0.408488 0,-0.816976 0,-0.408488 0,-0.816976 0,-0.408488 0,-0.816976"
         style="fill:#00ff80;fill-opacity:1;stroke-width:0.81697607"
         inkscape:connector-curvature="0" />
      <path
         id="path81"
         d="m 23.647349,12.557569 v -0.408488 h 0.408488 q 0.408488,0 0.816976,0 0.408488,0 0.816976,0 0.408488,0 0.816977,0 h 0.408488 v 0.408488 0.408488 0.408488 0.408488 0.408488 0.408488 0.408488 0.408488 h -0.408488 q -0.408489,0 -0.816977,0 -0.408488,0 -0.816976,0 -0.408488,0 -0.816976,0 h -0.408488 v -0.408488 q 0,-0.408488 0,-0.816976 0,-0.408488 0,-0.816976 0,-0.408488 0,-0.816976"
         style="fill:#c0c0c0;fill-opacity:1;stroke-width:0.81697607"
         inkscape:connector-curvature="0" />
      <path
         id="path83"
         d="m 10.915254,16.8016 v -0.408488 h 0.408488 q 0.408489,0 0.816977,0 0.408488,0 0.816976,0 0.408488,0 0.816976,0 h 0.408488 V 16.8016 q 0,0.408488 0,0.816976 0,0.408488 0,0.816976 0,0.408488 0,0.816977 v 0.408488 H 13.774671 13.366183 12.957695 12.549207 12.140719 11.732231 11.323742 10.915254 V 19.252529 18.84404 18.435552 18.027064 17.618576 17.210088 16.8016"
         style="fill:#ffffff;fill-opacity:1;stroke-width:0.81697607"
         inkscape:connector-curvature="0" />
      <path
         id="path85"
         d="m 15.159286,16.8016 v -0.408488 h 0.408488 q 0.408488,0 0.816976,0 0.408488,0 0.816976,0 0.408488,0 0.816976,0 H 18.42719 V 16.8016 q 0,0.408488 0,0.816976 0,0.408488 0,0.816976 0,0.408488 0,0.816977 v 0.408488 H 18.018702 17.610214 17.201726 16.793238 16.38475 15.976262 15.567774 15.159286 v -0.408488 q 0,-0.408489 0,-0.816977 0,-0.408488 0,-0.816976 0,-0.408488 0,-0.816976"
         style="fill:#8000ff;fill-opacity:1;stroke-width:0.81697607"
         inkscape:connector-curvature="0" />
      <path
         id="path87"
         d="m 19.403318,16.8016 v -0.408488 h 0.408488 q 0.408488,0 0.816976,0 0.408488,0 0.816976,0 0.408488,0 0.816976,0 h 0.408488 V 16.8016 q 0,0.408488 0,0.816976 0,0.408488 0,0.816976 0,0.408488 0,0.816977 v 0.408488 H 22.262734 21.854246 21.445758 21.03727 20.628782 20.220294 19.811806 19.403318 v -0.408488 q 0,-0.408489 0,-0.816977 0,-0.408488 0,-0.816976 0,-0.408488 0,-0.816976"
         style="fill:#000000;fill-opacity:1;stroke-width:0.81697607"
         inkscape:connector-curvature="0" />
      <path
         id="path89"
         d="m 23.647349,16.8016 v -0.408488 h 0.408488 q 0.408488,0 0.816976,0 0.408488,0 0.816976,0 0.408488,0 0.816977,0 h 0.408488 v 0.408488 0.408488 0.408488 0.408488 0.408488 0.408488 0.408489 0.408488 h -0.408488 -0.408489 -0.408488 -0.408488 -0.408488 -0.408488 -0.408488 -0.408488 v -0.408488 q 0,-0.408489 0,-0.816977 0,-0.408488 0,-0.816976 0,-0.408488 0,-0.816976"
         style="fill:#ff0080;fill-opacity:1;stroke-width:0.81697607"
         inkscape:connector-curvature="0" />
    </g>
  </g>
</svg>
