<?xml version="1.0" encoding="UTF-8"?>
<svg width="16mm" height="16mm" version="1.1" viewBox="0 0 16 16" xmlns="http://www.w3.org/2000/svg"><g transform="translate(-80.333 -69.282)"><g transform="translate(69.417 65.621)"><path d="m10.915 4.0695v-0.40849h3.2679v0.40849q0 0.40849 0 0.81698 0 0.40849 0 0.81698 0 0.40849 0 0.81698v0.40849h-0.40849q-0.40849 0-0.81698 0t-0.81698 0-0.81698 0h-0.40849v-2.8594" style="fill:#f00;stroke-width:.81698"/><path d="m15.159 4.0695v-0.40849h3.2679v0.40849q0 0.40849 0 0.81698 0 0.40849 0 0.81698 0 0.40849 0 0.81698v0.40849h-0.40849q-0.40849 0-0.81698 0t-0.81698 0-0.81698 0h-0.40849v-0.40849q0-0.40849 0-0.81698 0-0.40849 0-0.81698 0-0.40849 0-0.81698" style="fill:#00f;stroke-width:.81698"/><path d="m19.403 4.0695v-0.40849h3.2679v0.40849q0 0.40849 0 0.81698 0 0.40849 0 0.81698 0 0.40849 0 0.81698v0.40849h-0.40849q-0.40849 0-0.81698 0t-0.81698 0-0.81698 0h-0.40849v-0.40849q0-0.40849 0-0.81698 0-0.40849 0-0.81698 0-0.40849 0-0.81698" style="fill:#808000;stroke-width:.81698"/><path d="m23.647 4.0695v-0.40849h3.2679v3.2679h-0.40849q-0.40849 0-0.81698 0t-0.81698 0-0.81698 0h-0.40849v-0.40849q0-0.40849 0-0.81698 0-0.40849 0-0.81698 0-0.40849 0-0.81698" style="fill:#008000;stroke-width:.81698"/><path d="m10.915 8.3135v-0.40849h0.40849q0.40849 0 0.81698 0t0.81698 0 0.81698 0h0.40849v0.40849q0 0.40849 0 0.81698 0 0.40849 0 0.81698 0 0.40849 0 0.81698v0.40849h-0.40849q-0.40849 0-0.81698 0t-0.81698 0-0.81698 0h-0.40849v-2.8594" style="fill:#ff0;stroke-width:.81698"/><path d="m15.159 8.3135v-0.40849h0.40849q0.40849 0 0.81698 0t0.81698 0 0.81698 0h0.40849v0.40849q0 0.40849 0 0.81698 0 0.40849 0 0.81698 0 0.40849 0 0.81698v0.40849h-0.40849q-0.40849 0-0.81698 0t-0.81698 0-0.81698 0h-0.40849v-0.40849q0-0.40849 0-0.81698 0-0.40849 0-0.81698 0-0.40849 0-0.81698" style="fill:#800080;stroke-width:.81698"/><path d="m19.403 8.3135v-0.40849h0.40849q0.40849 0 0.81698 0t0.81698 0 0.81698 0h0.40849v0.40849q0 0.40849 0 0.81698 0 0.40849 0 0.81698 0 0.40849 0 0.81698v0.40849h-0.40849q-0.40849 0-0.81698 0t-0.81698 0-0.81698 0h-0.40849v-0.40849q0-0.40849 0-0.81698 0-0.40849 0-0.81698 0-0.40849 0-0.81698" style="fill:#ff8040;stroke-width:.81698"/><path d="m23.647 8.3135v-0.40849h0.40849q0.40849 0 0.81698 0t0.81698 0 0.81698 0h0.40849v3.2679h-0.40849q-0.40849 0-0.81698 0t-0.81698 0-0.81698 0h-0.40849v-0.40849q0-0.40849 0-0.81698 0-0.40849 0-0.81698 0-0.40849 0-0.81698" style="fill:#804000;stroke-width:.81698"/><path d="m10.915 12.558v-0.40849h0.40849q0.40849 0 0.81698 0t0.81698 0 0.81698 0h0.40849v0.40849q0 0.40849 0 0.81698t0 0.81698 0 0.81698v0.40849h-0.40849q-0.40849 0-0.81698 0t-0.81698 0-0.81698 0h-0.40849v-2.8594" style="fill:#8080ff;stroke-width:.81698"/><path d="m15.159 12.558v-0.40849h0.40849q0.40849 0 0.81698 0t0.81698 0 0.81698 0h0.40849v0.40849q0 0.40849 0 0.81698t0 0.81698 0 0.81698v0.40849h-0.40849q-0.40849 0-0.81698 0t-0.81698 0-0.81698 0h-0.40849v-0.40849q0-0.40849 0-0.81698t0-0.81698 0-0.81698" style="fill:#80ffff;stroke-width:.81698"/><path d="m19.403 12.558v-0.40849h0.40849q0.40849 0 0.81698 0t0.81698 0 0.81698 0h0.40849v0.40849q0 0.40849 0 0.81698t0 0.81698 0 0.81698v0.40849h-0.40849q-0.40849 0-0.81698 0t-0.81698 0-0.81698 0h-0.40849v-0.40849q0-0.40849 0-0.81698t0-0.81698 0-0.81698" style="fill:#00ff80;stroke-width:.81698"/><path d="m23.647 12.558v-0.40849h0.40849q0.40849 0 0.81698 0t0.81698 0 0.81698 0h0.40849v3.2679h-0.40849q-0.40849 0-0.81698 0t-0.81698 0-0.81698 0h-0.40849v-0.40849q0-0.40849 0-0.81698t0-0.81698 0-0.81698" style="fill:#c0c0c0;stroke-width:.81698"/><path d="m10.915 16.802v-0.40849h0.40849q0.40849 0 0.81698 0t0.81698 0 0.81698 0h0.40849v0.40849q0 0.40849 0 0.81698t0 0.81698 0 0.81698v0.40849h-3.2679v-2.8594" style="fill:#fff;stroke-width:.81698"/><path d="m15.159 16.802v-0.40849h0.40849q0.40849 0 0.81698 0t0.81698 0 0.81698 0h0.40849v0.40849q0 0.40849 0 0.81698t0 0.81698 0 0.81698v0.40849h-3.2679v-0.40849q0-0.40849 0-0.81698t0-0.81698 0-0.81698" style="fill:#8000ff;stroke-width:.81698"/><path d="m19.403 16.802v-0.40849h0.40849q0.40849 0 0.81698 0t0.81698 0 0.81698 0h0.40849v0.40849q0 0.40849 0 0.81698t0 0.81698 0 0.81698v0.40849h-3.2679v-0.40849q0-0.40849 0-0.81698t0-0.81698 0-0.81698" style="stroke-width:.81698"/><path d="m23.647 16.802v-0.40849h0.40849q0.40849 0 0.81698 0t0.81698 0 0.81698 0h0.40849v3.2679h-3.2679v-0.40849q0-0.40849 0-0.81698t0-0.81698 0-0.81698" style="fill:#ff0080;stroke-width:.81698"/></g></g></svg>
